<?xml version="1.0" encoding="iso-8859-1"?>
<!-- Generator: Adobe Illustrator 19.0.0, SVG Export Plug-In . SVG Version: 6.00 Build 0)  -->
<svg version="1.1" id="Capa_1" xmlns="http://www.w3.org/2000/svg" xmlns:xlink="http://www.w3.org/1999/xlink" x="0px" y="0px"
	 viewBox="0 0 512 512" style="enable-background:new 0 0 512 512;" xml:space="preserve">
<circle style="fill:#2864F0;" cx="345.974" cy="165.546" r="45.002"/>
<path style="fill:#3389FF;" d="M398.477,325.452c-2.401,1.201-4.501,5.877-6.899,7.677c-27.002,21.9-62.704,21.9-90.004,0
	c-13.705-11.115-29.651-17.744-45.603-17.576c-15.477,0.163-30.957,6.791-44.401,17.576c-27.002,21.9-62.704,21.9-90.004,0
	c-6-5.099-12.602-11.575-19.201-13.977l102.302-102.304l-60.002-60.002c-11.699-11.699-11.699-30.9,0-42.601l90.004-90.004
	c11.7-11.7,30.902-11.7,42.603,0c11.699,11.7,11.699,30.902,0,42.601l-69.004,68.704L398.477,325.452z"/>
<g>
	<path style="fill:#2864F0;" d="M277.273,66.842c11.699-11.699,11.699-30.9,0-42.601c-5.85-5.85-13.576-8.776-21.302-8.776v72.586
		L277.273,66.842z"/>
	<path style="fill:#2864F0;" d="M255.971,315.553c15.951-0.168,31.896,6.459,45.603,17.576c27.3,21.9,63.002,21.9,90.004,0
		c2.399-1.8,4.499-6.476,6.899-7.677L255.971,183.173V315.553z"/>
</g>
<g>
	<path style="fill:#19CFFC;" d="M510.482,360.855c-3.6,7.5-12.6,10.499-20.1,6.899c-6-2.701-11.701-6.601-17.101-10.8
		c-21.602-17.402-50.503-17.402-72.103,0c-16.202,12.901-35.403,19.5-54.602,19.5c-18.901,0-38.103-6.599-54.302-19.5
		c-11.1-8.701-23.702-13.201-36.302-13.201c-12.002,0-24.301,4.499-34.8,13.201c-32.702,26.101-76.204,26.101-108.904,0
		c-21.602-17.402-50.503-17.402-72.103,0c-6,4.799-12.302,8.699-18.901,11.699c-7.5,3.602-16.502,0.3-19.802-7.2
		c-3.6-7.5-0.3-16.501,7.2-20.1c4.501-2.1,8.701-4.501,12.602-7.8c32.7-26.101,77.202-26.101,109.905,0
		c21.6,17.402,49.501,17.402,71.103,0c16.2-13.201,35.1-19.5,53.701-19.5c19.502-0.3,38.701,6.299,55.203,19.5
		c21.6,17.402,49.501,17.402,71.103,0c32.7-26.101,77.202-26.101,109.904,0c3.6,3.001,7.5,5.4,11.398,7.2
		C511.081,344.654,514.082,353.653,510.482,360.855z"/>
	<path style="fill:#19CFFC;" d="M510.482,420.858c-3.6,7.5-12.6,10.499-20.1,6.899c-6-2.701-11.701-6.601-17.101-10.8
		c-21.602-17.402-50.503-17.402-72.103,0c-16.202,12.901-35.403,19.5-54.602,19.5c-18.901,0-38.103-6.599-54.302-19.5
		c-11.1-8.701-23.702-13.201-36.302-13.201c-12.002,0-24.301,4.499-34.8,13.201c-32.702,26.101-76.204,26.101-108.904,0
		c-21.602-17.402-50.503-17.402-72.103,0c-6,4.799-12.302,8.699-18.901,11.699c-7.5,3.602-16.502,0.3-19.802-7.2
		c-3.6-7.5-0.3-16.501,7.2-20.1c4.501-2.1,8.701-4.501,12.602-7.8c32.7-26.101,77.202-26.101,109.905,0
		c21.6,17.402,49.501,17.402,71.103,0c16.2-13.201,35.1-19.5,53.701-19.5c19.502-0.3,38.701,6.299,55.203,19.5
		c21.6,17.402,49.501,17.402,71.103,0c32.7-26.101,77.202-26.101,109.904,0c3.6,3.001,7.5,5.4,11.398,7.2
		C511.081,404.656,514.082,413.655,510.482,420.858z"/>
	<path style="fill:#19CFFC;" d="M510.482,480.86c-3.6,7.5-12.6,10.499-20.1,6.899c-6-2.701-11.701-6.601-17.101-10.8
		c-21.602-17.402-50.503-17.402-72.103,0c-16.202,12.901-35.403,19.5-54.602,19.5c-18.901,0-38.103-6.599-54.302-19.5
		c-11.1-8.701-23.702-13.201-36.302-13.201c-12.002,0-24.301,4.499-34.8,13.201c-32.702,26.101-76.204,26.101-108.904,0
		c-21.602-17.402-50.503-17.402-72.103,0c-6,4.799-12.302,8.699-18.901,11.699c-7.5,3.602-16.502,0.3-19.802-7.2
		c-3.6-7.5-0.3-16.501,7.2-20.1c4.501-2.1,8.701-4.501,12.602-7.8c32.7-26.101,77.202-26.101,109.905,0
		c21.6,17.402,49.501,17.402,71.103,0c16.2-13.201,35.1-19.5,53.701-19.5c19.502-0.3,38.701,6.299,55.203,19.5
		c21.6,17.402,49.501,17.402,71.103,0c32.7-26.101,77.202-26.101,109.904,0c3.6,3.001,7.5,5.4,11.398,7.2
		C511.081,464.659,514.082,473.658,510.482,480.86z"/>
	<path style="fill:#19CFFC;" d="M510.482,480.86c-3.6,7.5-12.6,10.499-20.1,6.899c-6-2.701-11.701-6.601-17.101-10.8
		c-21.602-17.402-50.503-17.402-72.103,0c-16.202,12.901-35.403,19.5-54.602,19.5c-18.901,0-38.103-6.599-54.302-19.5
		c-11.1-8.701-23.702-13.201-36.302-13.201v-29.701c19.502-0.3,38.701,6.299,55.203,19.5c21.6,17.402,49.501,17.402,71.103,0
		c32.7-26.101,77.202-26.101,109.904,0c3.6,3.001,7.5,5.4,11.398,7.2C511.081,464.659,514.082,473.658,510.482,480.86z"/>
	<path style="fill:#19CFFC;" d="M292.274,416.958c-11.1-8.701-23.702-13.201-36.302-13.201v-29.701
		c19.502-0.3,38.701,6.299,55.203,19.5c21.6,17.402,49.501,17.402,71.103,0c32.7-26.101,77.202-26.101,109.904,0
		c3.6,3.001,7.5,5.4,11.398,7.2c7.5,3.9,10.501,12.901,6.901,20.102c-3.6,7.5-12.6,10.499-20.1,6.899
		c-6-2.701-11.701-6.601-17.101-10.8c-21.602-17.402-50.503-17.402-72.103,0c-16.202,12.901-35.403,19.5-54.602,19.5
		C327.675,436.457,308.473,429.858,292.274,416.958z"/>
	<path style="fill:#19CFFC;" d="M510.482,360.855c-3.6,7.5-12.6,10.499-20.1,6.899c-6-2.701-11.701-6.601-17.101-10.8
		c-21.602-17.402-50.503-17.402-72.103,0c-16.202,12.901-35.403,19.5-54.602,19.5c-18.901,0-38.103-6.599-54.302-19.5
		c-11.1-8.701-23.702-13.201-36.302-13.201v-29.701c19.502-0.3,38.701,6.299,55.203,19.5c21.6,17.402,49.501,17.402,71.103,0
		c32.7-26.101,77.202-26.101,109.904,0c3.6,3.001,7.5,5.4,11.398,7.2C511.081,344.654,514.082,353.653,510.482,360.855z"/>
</g>
<g>
</g>
<g>
</g>
<g>
</g>
<g>
</g>
<g>
</g>
<g>
</g>
<g>
</g>
<g>
</g>
<g>
</g>
<g>
</g>
<g>
</g>
<g>
</g>
<g>
</g>
<g>
</g>
<g>
</g>
</svg>
